#!OML:ASF F:\VICON\USERDATA\INSTALL\rory3\rory3.ASF
:FULLY-SPECIFIED
:DEGREES
681
root 1.158 17.9357 6.80055 -89.6783 -87.8213 447.313
lowerback 19.536 -1.0981 -1.53293
upperback 1.60393 -1.53113 4.58492
thorax -9.04704 -0.65353 6.34128
lowerneck -10.8912 -1.78446 -2.93876
upperneck 19.4354 -1.21993 -5.00033
head 7.79287 -1.39927 -1.29676
rclavicle -4.73108e-014 7.31528e-014
rhumerus -52.7284 7.345 -80.1911
rradius 126.467
rwrist 37.9621
rhand -20.9847 1.72669
rfingers 7.12502
rthumb 5.38916 -28.1848
lclavicle -4.73108e-014 7.31528e-014
lhumerus -46.8594 3.86447 81.4446
lradius 56.0655
lwrist 11.6376
lhand -12.833 50.4759
lfingers 7.12502
lthumb 13.2542 80.0345
rfemur -16.7081 2.22503 19.6752
rtibia 45.7547
rfoot -21.7751 -5.7469
rtoes 0.10759
lfemur -10.5985 -9.32473 -24.9322
ltibia 31.4347
lfoot -14.423 -1.39007
ltoes 19.2185
682
root 1.16365 17.8669 6.81864 -91.6508 -87.8687 449.245
lowerback 19.5847 -1.08567 -1.36055
upperback 1.57011 -1.47725 4.55724
thorax -9.12264 -0.631916 6.20018
lowerneck -10.955 -1.81495 -3.16488
upperneck 19.6438 -1.24875 -4.8181
head 7.87722 -1.41995 -1.20664
rclavicle 1.94809e-014 1.90833e-014
rhumerus -53.6577 8.49595 -81.0109
rradius 124.816
rwrist 39.2931
rhand -22.836 3.36303
rfingers 7.12502
rthumb 3.60152 -26.5863
lclavicle 1.94809e-014 1.90833e-014
lhumerus -47.1273 3.82184 81.5126
lradius 56.462
lwrist 11.5713
lhand -13.0081 50.7641
lfingers 7.12502
lthumb 13.0854 80.3336
rfemur -16.8424 -0.0399008 20.5472
rtibia 45.7494
rfoot -19.1722 -9.81156
rtoes -27.0441
lfemur -10.8593 -9.53895 -24.9771
ltibia 31.9231
lfoot -14.4033 -1.66021
ltoes 21.2837
683
root 1.17056 17.8914 6.82273 -89.9084 -87.6905 447.365
lowerback 19.7488 -1.08063 -1.56976
upperback 1.57398 -1.5166 4.54025
thorax -9.19922 -0.640196 6.32211
lowerneck -11.0117 -1.79902 -3.46074
upperneck 19.8243 -1.19973 -4.64598
head 7.95299 -1.40939 -1.09989
rclavicle 2.3059e-014 4.6118e-014
rhumerus -54.2123 9.29026 -81.5373
rradius 122.894
rwrist 40.6428
rhand -23.7618 5.63897
rfingers 7.12502
rthumb 2.70742 -24.3236
lclavicle 2.3059e-014 4.6118e-014
lhumerus -47.2962 3.75678 81.7421
lradius 56.7036
lwrist 11.9244
lhand -13.4177 50.6017
lfingers 7.12502
lthumb 12.6905 80.1962
rfemur -16.5739 0.610229 20.3356
rtibia 45.8878
rfoot -20.549 -5.08979
rtoes -8.94891
lfemur -10.7807 -9.68259 -25.1869
ltibia 32.0924
lfoot -14.4296 -2.08973
ltoes 24.0512
684
root 1.17991 17.8946 6.8203 -89.0852 -87.5762 446.447
lowerback 19.8586 -1.05873 -1.81057
upperback 1.57224 -1.54082 4.52279
thorax -9.25293 -0.640077 6.45531
lowerneck -10.9195 -1.73903 -3.53947
upperneck 19.8257 -1.10978 -4.64632
head 7.93857 -1.37308 -1.07694
rclavicle 1.31198e-014 -3.18055e-015
rhumerus -54.6153 10.1709 -82.2288
rradius 120.56
rwrist 41.1352
rhand -24.6955 6.92393
rfingers 7.12502
rthumb 1.80568 -23.0482
lclavicle 1.31198e-014 -3.18055e-015
lhumerus -47.4958 3.56517 81.9681
lradius 57.023
lwrist 12.0271
lhand -13.8681 50.6522
lfingers 7.12502
lthumb 12.2563 80.2731
rfemur -16.3929 0.624387 20.4427
rtibia 45.8563
rfoot -20.2205 -3.01598
rtoes 0.22561
lfemur -10.7749 -9.41812 -25.2237
ltibia 32.212
lfoot -14.2681 -2.60661
ltoes 25.2412
685
root 1.18631 17.8813 6.82684 -92.7029 -87.2055 450.025
lowerback 19.8631 -1.01993 -2.23356
upperback 1.56384 -1.59175 4.36378
thorax -9.25135 -0.64773 6.53705
lowerneck -10.6811 -1.62101 -3.3882
upperneck 19.7252 -0.976021 -4.7438
head 7.86066 -1.30383 -1.11637
rclavicle -3.85642e-014 3.81667e-014
rhumerus -54.9282 11.2746 -83.0608
rradius 117.821
rwrist 41.7218
rhand -25.4989 7.02731
rfingers 7.12502
rthumb 1.02976 -22.9499
lclavicle -3.85642e-014 3.81667e-014
lhumerus -47.803 3.49817 81.9735
lradius 57.3013
lwrist 11.6191
lhand -13.6139 50.6382
lfingers 7.12502
lthumb 12.5014 80.2442
rfemur -16.3398 0.155927 20.3158
rtibia 45.7989
rfoot -19.554 -2.184
rtoes 4.71855
lfemur -10.7042 -8.93724 -25.5834
ltibia 32.1092
lfoot -14.236 -2.69676
ltoes 23.8205
686
root 1.18171 17.8951 6.80481 -98.1006 -87.3838 455.489
lowerback 19.6221 -0.942969 -2.34633
upperback 1.52332 -1.5128 4.31434
thorax -9.172 -0.60625 6.51454
lowerneck -10.2144 -1.583 -2.93033
upperneck 19.5104 -1.01972 -4.86222
head 7.69787 -1.2916 -1.226
rclavicle 2.54444e-014 -3.97569e-014
rhumerus -55.104 11.8909 -83.6418
rradius 114.57
rwrist 42.0471
rhand -26.3864 8.40112
rfingers 7.12502
rthumb 0.172543 -21.5786
lclavicle 2.54444e-014 -3.97569e-014
lhumerus -48.1909 3.33443 81.774
lradius 57.5261
lwrist 11.2322
lhand -12.8026 50.6608
lfingers 7.12502
lthumb 13.2835 80.2175
rfemur -16.2172 0.638244 20.9191
rtibia 45.4502
rfoot -19.0054 -2.45679
rtoes 12.2576
lfemur -10.8752 -7.99833 -25.1486
ltibia 32.1882
lfoot -14.4343 -3.10616
ltoes 22.1717
687
root 1.19588 17.8848 6.82861 -95.6017 -87.3474 453.481
lowerback 19.0776 -1.12388 -2.10207
upperback 1.37911 -1.69578 4.17636
thorax -9.01863 -0.70437 6.24239
lowerneck -10.074 -1.52754 -2.64003
upperneck 19.4914 -0.979755 -4.99707
head 7.66254 -1.26313 -1.31269
rclavicle -2.24627e-014 -1.27222e-014
rhumerus -55.0226 12.9131 -84.2254
rradius 111.082
rwrist 41.9456
rhand -27.8753 9.4426
rfingers 7.12502
rthumb -1.26543 -20.5334
lclavicle -2.24627e-014 -1.27222e-014
lhumerus -48.3943 3.13543 81.7545
lradius 57.6781
lwrist 11.5314
lhand -12.5118 50.7497
lfingers 7.12502
lthumb 13.5638 80.2879
rfemur -16.6265 0.11933 21.1322
rtibia 45.0264
rfoot -17.9607 -4.83972
rtoes 9.18219
lfemur -11.5648 -7.81316 -25.1571
ltibia 32.2723
lfoot -14.416 -3.22265
ltoes 21.3036
688
root 1.20164 17.888 6.84667 -102.16 -87.5269 460.043
lowerback 18.9246 -1.23222 -1.79577
upperback 1.42726 -1.77706 4.20054
thorax -8.87959 -0.762234 6.10189
lowerneck -10.1456 -1.43412 -2.83647
upperneck 19.6998 -0.836809 -4.86575
head 7.74909 -1.2064 -1.22786
rclavicle 1.72943e-014 -1.59028e-015
rhumerus -54.4605 13.4818 -84.6315
rradius 107.118
rwrist 41.7499
rhand -29.2252 11.2158
rfingers 7.12502
rthumb -2.56922 -18.7485
lclavicle 1.72943e-014 -1.59028e-015
lhumerus -48.5157 3.43737 81.7573
lradius 57.6819
lwrist 11.8188
lhand -12.9616 50.8151
lfingers 7.12502
lthumb 13.1302 80.3817
rfemur -16.3968 0.478759 21.3956
rtibia 44.5166
rfoot -17.9284 -5.89389
rtoes 14.5806
lfemur -11.4581 -8.1391 -25.026
ltibia 32.1688
lfoot -14.4973 -2.58504
ltoes 19.8274
689
root 1.19703 17.8977 6.83685 -111.15 -87.4708 468.564
lowerback 19.2025 -1.04982 -1.98645
upperback 1.56925 -1.58822 4.17391
thorax -8.8938 -0.669435 6.14307
lowerneck -10.2039 -1.47745 -2.82716
upperneck 20.037 -0.920754 -4.72117
head 7.87054 -1.24418 -1.1961
rclavicle -1.23246e-014 -3.18055e-015
rhumerus -53.9552 14.6898 -84.9076
rradius 102.933
rwrist 40.6818
rhand -30.6982 12.3269
rfingers 7.12502
rthumb -3.99174 -17.6155
lclavicle -1.23246e-014 -3.18055e-015
lhumerus -48.5276 3.36086 81.8983
lradius 57.4898
lwrist 11.7451
lhand -13.6303 50.7215
lfingers 7.12502
lthumb 12.4856 80.3285
rfemur -15.6073 1.49128 21.4368
rtibia 44.106
rfoot -19.3422 -5.49781
rtoes 25.2816
lfemur -10.7476 -8.15113 -25.0458
ltibia 31.9994
lfoot -14.6072 -2.18768
ltoes 18.1422
690
root 1.19446 17.8889 6.82155 -116.329 -86.9567 473.459
lowerback 19.3526 -0.706264 -2.56234
upperback 1.59619 -1.27041 3.98388
thorax -8.9761 -0.493715 6.18905
lowerneck -10.2157 -1.60526 -2.70896
upperneck 20.4607 -1.13121 -4.65084
head 8.00979 -1.34321 -1.22048
rclavicle 2.26615e-014 3.33958e-014
rhumerus -53.4173 15.1014 -85.0816
rradius 98.3745
rwrist 39.5651
rhand -32.0592 13.4764
rfingers 7.12502
rthumb -5.30585 -16.4372
lclavicle 2.26615e-014 3.33958e-014
lhumerus -48.5603 2.7593 82.1987
lradius 57.27
lwrist 11.7472
lhand -13.586 50.6218
lfingers 7.12502
lthumb 12.5283 80.2262
rfemur -15.1145 2.47928 21.1849
rtibia 43.6403
rfoot -20.3983 -5.52424
rtoes 29.5388
lfemur -10.3353 -7.25132 -25.5013
ltibia 31.828
lfoot -14.6226 -2.12337
ltoes 16.5526
691
root 1.1931 17.8473 6.80929 -124.126 -86.6124 480.86
lowerback 19.5743 -0.426315 -2.92609
upperback 1.68867 -0.991374 3.92262
thorax -9.02555 -0.348304 6.2654
lowerneck -10.1089 -1.63049 -2.7729
upperneck 20.6656 -1.2022 -4.4517
head 8.05943 -1.36912 -1.15296
rclavicle -1.39149e-015 -3.33958e-014
rhumerus -52.6779 15.6602 -85.4166
rradius 93.4082
rwrist 38.762
rhand -33.7672 14.1726
rfingers 7.12502
rthumb -6.95485 -15.6931
lclavicle -1.39149e-015 -3.33958e-014
lhumerus -48.5843 2.4608 82.3766
lradius 56.9943
lwrist 11.4097
lhand -12.801 50.496
lfingers 7.12502
lthumb 13.285 80.0526
rfemur -14.6279 3.00437 21.4144
rtibia 43.3396
rfoot -20.5414 -6.86369
rtoes 25.6692
lfemur -9.91216 -5.27554 -25.7927
ltibia 31.6261
lfoot -14.6181 -1.41772
ltoes 4.57898
692
root 1.18616 17.8556 6.81599 -135.654 -86.6332 492.16
lowerback 19.5428 -0.383401 -2.78081
upperback 1.8049 -0.896769 4.1362
thorax -8.89115 -0.316068 6.38917
lowerneck -10.1297 -1.53105 -3.12075
upperneck 20.874 -1.04885 -4.22439
head 8.13994 -1.31041 -1.00845
rclavicle 1.94809e-014 -4.6118e-014
rhumerus -51.6324 16.7852 -85.6872
rradius 88.2789
rwrist 38.3115
rhand -34.9519 14.5023
rfingers 7.12502
rthumb -8.0984 -15.3225
lclavicle 1.94809e-014 -4.6118e-014
lhumerus -48.5887 2.56603 82.5009
lradius 56.6965
lwrist 11.2643
lhand -11.858 50.3825
lfingers 7.12502
lthumb 14.1938 79.8776
rfemur -14.083 3.0657 22.0543
rtibia 42.8529
rfoot -20.4549 -7.89185
rtoes 21.3025
lfemur -9.5049 -6.05936 -25.2705
ltibia 31.5838
lfoot -14.812 -1.69994
ltoes 16.6574
693
root 1.19182 17.8392 6.83803 -144.129 -86.5488 500.546
lowerback 19.5132 -0.339994 -2.45275
upperback 1.87201 -0.765887 4.26811
thorax -8.82042 -0.270318 6.30736
lowerneck -10.2806 -1.56202 -3.48188
upperneck 21.0871 -1.06059 -4.00774
head 8.24463 -1.33167 -0.882714
rclavicle -3.18055e-015 -4.77083e-014
rhumerus -50.2975 17.2706 -85.6777
rradius 83.0096
rwrist 38.2567
rhand -35.3362 15.1241
rfingers 7.12502
rthumb -8.46926 -14.6861
lclavicle -3.18055e-015 -4.77083e-014
lhumerus -48.4989 2.35301 82.8058
lradius 56.3791
lwrist 11.3009
lhand -11.1589 50.2542
lfingers 7.12502
lthumb 14.8674 79.7007
rfemur -13.8252 3.40112 22.3224
rtibia 42.639
rfoot -21.0667 -7.38041
rtoes 24.4422
lfemur -9.48745 -5.49523 -25.1653
ltibia 31.5613
lfoot -14.8243 -0.570128
ltoes 7.33424
694
root 1.19925 17.8758 6.86551 -146.259 -86.2527 502.893
lowerback 19.2988 -0.277032 -2.25232
upperback 1.77603 -0.633637 4.23327
thorax -8.82757 -0.210506 6.11131
lowerneck -10.4106 -1.65615 -3.87473
upperneck 21.3568 -1.15385 -3.79959
head 8.36538 -1.39714 -0.763286
rclavicle 1.41137e-014 -3.33958e-014
rhumerus -48.7811 17.9425 -85.3096
rradius 77.7814
rwrist 37.9019
rhand -34.9653 16.0398
rfingers 7.12502
rthumb -8.11126 -13.7846
lclavicle 1.41137e-014 -3.33958e-014
lhumerus -48.3738 1.96803 83.2915
lradius 55.9419
lwrist 11.4122
lhand -11.8244 50.1369
lfingers 7.12502
lthumb 14.2262 79.6297
rfemur -13.7302 3.83239 22.0435
rtibia 42.1026
rfoot -21.4636 -6.45639
rtoes 28.2306
lfemur -9.7265 -6.22535 -25.1922
ltibia 31.8072
lfoot -15.0054 -0.753152
ltoes 13.6172
